<?xml version="1.0" encoding="utf-8"?>
<!-- Generator: Adobe Illustrator 22.0.1, SVG Export Plug-In . SVG Version: 6.00 Build 0)  -->
<svg version="1.1" id="Layer_1" xmlns="http://www.w3.org/2000/svg" xmlns:xlink="http://www.w3.org/1999/xlink" x="0px" y="0px"
	 viewBox="0 0 276 52" style="enable-background:new 0 0 276 52;" xml:space="preserve">
<style type="text/css">
	.st0{fill:#444444;}
	.st1{fill:#FFFFFF;}
</style>
<g id="Layer_2_1_">
	<path class="st0" d="M138,45.7c-46.9,0-92.5-9.2-135.3-27.3C1.8,18,0.9,17.6,0,17.2v69.5h276V17.2c-0.9,0.4-1.8,0.8-2.7,1.2
		C230.5,36.5,184.9,45.7,138,45.7z"/>
	<path class="st1" d="M138,39.7c-49.1,0-95.8-10.4-138-29v6.6c0.9,0.4,1.8,0.8,2.7,1.2C45.5,36.5,91.1,45.7,138,45.7
		s92.5-9.2,135.3-27.3c0.9-0.4,1.8-0.8,2.7-1.2v-6.6C233.8,29.3,187.1,39.7,138,39.7z"/>
</g>
</svg>
