<?xml version="1.0" encoding="utf-8"?>
<!-- Generator: Adobe Illustrator 16.0.0, SVG Export Plug-In . SVG Version: 6.00 Build 0)  -->
<!DOCTYPE svg PUBLIC "-//W3C//DTD SVG 1.1//EN" "http://www.w3.org/Graphics/SVG/1.1/DTD/svg11.dtd">
<svg version="1.1" id="Layer_1" xmlns="http://www.w3.org/2000/svg" xmlns:xlink="http://www.w3.org/1999/xlink" x="0px" y="0px"
	 width="31px" height="29px" viewBox="0 0 31 29" enable-background="new 0 0 31 29" xml:space="preserve">
<g>
	<rect y="9" fill="#FFFFFF" width="7" height="20"/>
	<path fill="#FFFFFF" d="M3.759,0C1.486,0,0,1.581,0,3.5C0,5.378,1.442,7,3.672,7h0.043c2.317,0,3.76-1.622,3.76-3.5
		C7.433,1.581,6.032,0,3.759,0z"/>
	<path fill="#FFFFFF" d="M23.17,8.974c-3.531,0-5.17,1.899-6.17,3.233V9h-6.284c0.087,2,0,20,0,20H17V18.073
		c0-0.585,0.223-1.17,0.398-1.587c0.48-1.169,1.487-2.379,3.322-2.379c2.405,0,3.279,1.794,3.279,4.424V29h7V17.78
		C31,11.77,27.541,8.974,23.17,8.974z"/>
</g>
</svg>