<?xml version="1.0" encoding="utf-8"?>
<!-- Generator: Adobe Illustrator 16.0.0, SVG Export Plug-In . SVG Version: 6.00 Build 0)  -->
<!DOCTYPE svg PUBLIC "-//W3C//DTD SVG 1.1//EN" "http://www.w3.org/Graphics/SVG/1.1/DTD/svg11.dtd">
<svg version="1.1" id="Layer_1" xmlns="http://www.w3.org/2000/svg" xmlns:xlink="http://www.w3.org/1999/xlink" x="0px" y="0px"
	 width="32px" height="26px" viewBox="0 0 32 26" enable-background="new 0 0 32 26" xml:space="preserve">
<g id="Icon">
	<path fill="#FFFFFF" d="M32,3.076c-1.177,0.522-2.441,0.875-3.771,1.033c1.356-0.812,2.396-2.099,2.887-3.63
		c-1.268,0.752-2.673,1.298-4.17,1.592C25.75,0.796,24.043,0,22.154,0c-3.624,0-6.563,2.938-6.563,6.562
		c0,0.515,0.059,1.016,0.17,1.496C10.305,7.785,5.468,5.172,2.229,1.202c-0.565,0.97-0.889,2.097-0.889,3.3
		c0,2.276,1.159,4.285,2.92,5.462c-1.075-0.033-2.088-0.329-2.974-0.82c0,0.027,0,0.055,0,0.083c0,3.18,2.263,5.831,5.266,6.435
		c-0.552,0.151-1.131,0.23-1.729,0.23c-0.424,0-0.834-0.04-1.235-0.116c0.835,2.606,3.26,4.504,6.131,4.558
		c-2.246,1.761-5.077,2.811-8.152,2.811c-0.529,0-1.053-0.031-1.566-0.094C2.905,24.913,6.355,26,10.062,26
		C22.137,26,28.74,15.999,28.74,7.327c0-0.285-0.006-0.567-0.02-0.85C30.007,5.548,31.12,4.393,32,3.076z"/>
</g>
</svg>